<svg width="27" height="27" viewBox="0 0 27 27" fill="none" xmlns="http://www.w3.org/2000/svg">
<path d="M13.5 26.625C10.4375 26.625 7.72743 25.6956 5.36979 23.8367C3.01215 21.9778 1.4809 19.6017 0.776042 16.7083C0.67882 16.3437 0.751736 16.0098 0.994792 15.7065C1.23785 15.4031 1.56597 15.2267 1.97917 15.1771C2.36806 15.1285 2.72049 15.2014 3.03646 15.3958C3.35243 15.5903 3.57118 15.8819 3.69271 16.2708C4.27604 18.4583 5.47917 20.2448 7.30208 21.6302C9.125 23.0156 11.191 23.7083 13.5 23.7083C16.3438 23.7083 18.7563 22.7181 20.7377 20.7377C22.7191 18.7573 23.7093 16.3447 23.7083 13.5C23.7074 10.6553 22.7172 8.24319 20.7377 6.26375C18.7583 4.28431 16.3457 3.29361 13.5 3.29167C11.8229 3.29167 10.2552 3.68056 8.79688 4.45833C7.33854 5.23611 6.11111 6.30555 5.11458 7.66667H7.66667C8.07986 7.66667 8.42646 7.80667 8.70646 8.08667C8.98646 8.36667 9.12597 8.71278 9.125 9.125C9.12403 9.53722 8.98403 9.88382 8.705 10.1648C8.42597 10.4458 8.07986 10.5853 7.66667 10.5833H1.83333C1.42014 10.5833 1.07403 10.4433 0.795 10.1633C0.515972 9.88333 0.375972 9.53722 0.375 9.125V3.29167C0.375 2.87847 0.515 2.53236 0.795 2.25333C1.075 1.97431 1.42111 1.83431 1.83333 1.83333C2.24556 1.83236 2.59215 1.97236 2.87312 2.25333C3.1541 2.53431 3.29361 2.88042 3.29167 3.29167V5.26042C4.53125 3.70486 6.04451 2.50174 7.83146 1.65104C9.6184 0.800347 11.5079 0.375 13.5 0.375C15.3229 0.375 17.0306 0.721597 18.6231 1.41479C20.2156 2.10799 21.601 3.04326 22.7794 4.22062C23.9577 5.39799 24.8935 6.7834 25.5867 8.37687C26.2799 9.97035 26.626 11.6781 26.625 13.5C26.624 15.3219 26.2779 17.0297 25.5867 18.6231C24.8954 20.2166 23.9597 21.602 22.7794 22.7794C21.5991 23.9567 20.2137 24.8925 18.6231 25.5867C17.0326 26.2808 15.3249 26.6269 13.5 26.625ZM14.9583 12.9167L18.6042 16.5625C18.8715 16.8299 19.0052 17.1701 19.0052 17.5833C19.0052 17.9965 18.8715 18.3368 18.6042 18.6042C18.3368 18.8715 17.9965 19.0052 17.5833 19.0052C17.1701 19.0052 16.8299 18.8715 16.5625 18.6042L12.4792 14.5208C12.3333 14.375 12.224 14.2112 12.151 14.0294C12.0781 13.8476 12.0417 13.659 12.0417 13.4635V7.66667C12.0417 7.25347 12.1817 6.90736 12.4617 6.62833C12.7417 6.34931 13.0878 6.20931 13.5 6.20833C13.9122 6.20736 14.2588 6.34736 14.5398 6.62833C14.8208 6.90931 14.9603 7.25542 14.9583 7.66667V12.9167Z" fill="#585B62"/>
</svg>
